<svg xmlns="http://www.w3.org/2000/svg" viewBox="0 0 470 470"><path d="M403.622 241.092h-23.65a7.499 7.499 0 0 1-7.5-7.5c0-.002-15-.002-15-.002a7.5 7.5 0 0 1-7.5 7.502h-22.824l-40.507 68.922 38.851 66.105h78.142c16.866-20.122 30.202-43.292 39.054-68.555l-39.066-66.472zm-46.462 52.693a7.5 7.5 0 0 1-15 0c0-.425.044-.838.112-1.243a7.419 7.419 0 0 1 .478-1.676 7.526 7.526 0 0 1 1.607-2.384 7.476 7.476 0 0 1 5.303-2.196 7.499 7.499 0 0 1 7.5 7.499zm22.5 37.5a7.493 7.493 0 0 1-6.735-4.217 7.472 7.472 0 0 1 .947-8.054 7.52 7.52 0 0 1 1.594-1.448c.264-.179.544-.334.832-.479a7.456 7.456 0 0 1 3.362-.802 7.5 7.5 0 0 1 7.5 7.5c0 .478-.049.944-.135 1.398a7.498 7.498 0 0 1-7.365 6.102z" fill="#fff"/><path d="M379.972 226.092h23.651l38.444-65.414c-9.275-25.76-23.217-49.312-40.818-69.614h-74.1l-40.507 68.922 38.851 66.105h24.479a7.5 7.5 0 0 1 7.5 7.498h15a7.499 7.499 0 0 1 7.5-7.497z" fill="#c1e8e6"/><path d="M156.671 84.973l39.678 67.514h77.302l39.679-67.514-39.057-66.456A220.348 220.348 0 0 0 234.994 15a220.377 220.377 0 0 0-39.265 3.514l-39.058 66.459z" fill="#fff"/><path d="M66.378 226.092h78.13l38.851-66.105-40.506-68.922H68.749c-17.6 20.302-31.542 43.854-40.816 69.613l38.445 65.414zm16.799-82.108a7.503 7.503 0 0 1 7.163-5.27 7.494 7.494 0 0 1 6.69 4.122 7.461 7.461 0 0 1 .81 3.378 7.5 7.5 0 1 1-14.663-2.23z" fill="#c1e8e6"/><path d="M173.816 341.055a7.499 7.499 0 0 1-2.667-10.266l12.21-20.775-40.506-68.922H66.378l-39.067 66.472c8.852 25.264 22.187 48.434 39.052 68.556h78.145l11.44-19.467a7.499 7.499 0 0 1 10.266-2.666c.002.001.869-1.474.869-1.474l6.733-11.458z" fill="#fff"/><path d="M274.273 451.484l39.057-66.457-39.679-67.514h-77.303l-12.269 20.875a7.495 7.495 0 0 1-10.265 2.666l-6.733 11.458-.867 1.475a7.5 7.5 0 0 1 2.664 10.265l-12.209 20.775 39.058 66.458a220.377 220.377 0 0 0 39.265 3.514 220.354 220.354 0 0 0 39.281-3.515z" fill="#c1e8e6"/><path d="M448.061 180.083l-31.448 53.509 31.935 54.339A219.686 219.686 0 0 0 455 235.003c0-18.956-2.41-37.359-6.939-54.92zM327.148 391.119l-32.751 55.727c36.525-10.255 69.232-29.722 95.449-55.727h-62.698zm-1.655-315.055h61.467c-25.715-24.596-57.368-43.028-92.563-52.91l31.096 52.91zm-51.843 226.45L313.33 235l-39.68-67.514h-77.3L156.671 235l39.679 67.514zm-130.797 88.605H80.151c26.218 26.007 58.927 45.476 95.455 55.729l-32.753-55.729zm1.655-315.055l31.097-52.913c-35.198 9.881-66.853 28.314-92.569 52.913h61.472zm-91.12 157.528l-31.449-53.51C17.41 197.644 15 216.047 15 235.003c0 18.242 2.247 35.967 6.452 52.928l31.936-54.339z" fill="#185f8d"/><path d="M401.167 68.83C356.78 24.444 297.766 0 234.994 0c-62.769 0-121.78 24.444-166.165 68.83C24.443 113.217 0 172.231 0 235.003c0 62.77 24.444 121.782 68.829 166.167C113.214 445.556 172.226 470 234.994 470c62.771 0 121.786-24.444 166.173-68.829C445.555 356.785 470 297.772 470 235.003c0-62.772-24.445-121.786-68.833-166.173zm2.467 307.289h-78.142l-38.851-66.105 40.507-68.922h22.824c4.143 0 7.5-3.357 7.5-7.5a7.5 7.5 0 0 0-7.5-7.5h-24.479l-38.851-66.105 40.507-68.922h74.1c17.601 20.302 31.544 43.854 40.818 69.614l-38.444 65.414h-23.651a7.5 7.5 0 0 0-7.5 7.498 7.5 7.5 0 0 0 7.5 7.502h23.65l39.066 66.472c-8.852 25.262-22.188 48.433-39.054 68.554zM196.35 167.486h77.301L313.33 235l-39.68 67.514h-77.3L156.671 235l39.679-67.514zM68.749 91.064h74.104l40.506 68.922-38.851 66.105h-78.13l-38.445-65.414c9.274-25.759 23.216-49.31 40.816-69.613zm347.864 142.528l31.448-53.509c4.529 17.561 6.939 35.964 6.939 54.92 0 18.242-2.247 35.967-6.452 52.928l-31.935-54.339zm-91.12-157.528l-31.096-52.91c35.195 9.881 66.848 28.313 92.563 52.91h-61.467zm-51.22-57.547l39.057 66.456-39.679 67.514h-77.302l-39.678-67.514 39.058-66.458A220.292 220.292 0 0 1 234.994 15c13.404 0 26.53 1.209 39.279 3.517zM144.508 76.064H83.037c25.716-24.599 57.371-43.032 92.569-52.913l-31.098 52.913zM21.939 180.082l31.449 53.51-31.936 54.339A219.693 219.693 0 0 1 15 235.003c0-18.956 2.41-37.359 6.939-54.921zm120.914 211.037l32.753 55.729c-36.528-10.254-69.237-29.722-95.455-55.729h62.702zm52.876 60.367l-39.058-66.458 12.209-20.775a7.5 7.5 0 1 0-12.932-7.6l-11.44 19.467H66.363c-16.866-20.122-30.2-43.292-39.052-68.556l39.067-66.472h76.475l40.506 68.922-12.21 20.775a7.5 7.5 0 0 0 12.932 7.6l12.269-20.875h77.303l39.679 67.514-39.057 66.457a220.44 220.44 0 0 1-39.279 3.516 220.483 220.483 0 0 1-39.267-3.515zm131.419-60.367h62.698c-26.217 26.005-58.924 45.472-95.449 55.727l32.751-55.727z" fill="#082947"/><path d="M349.66 286.285a7.476 7.476 0 0 0-5.303 2.196 7.52 7.52 0 0 0-1.607 2.384 7.471 7.471 0 0 0-.478 1.676 7.48 7.48 0 0 0-.112 1.243 7.472 7.472 0 0 0 1.712 4.771 7.5 7.5 0 1 0 5.788-12.27zm30 30a7.46 7.46 0 0 0-3.362.802c-.287.145-.567.3-.832.479a7.522 7.522 0 0 0-1.594 1.448 7.467 7.467 0 0 0-.947 8.054 7.493 7.493 0 0 0 6.735 4.217c3.664 0 6.709-2.629 7.365-6.102.086-.454.135-.92.135-1.398a7.5 7.5 0 0 0-7.5-7.5zM90.34 153.715a7.5 7.5 0 0 0 7.5-7.5 7.461 7.461 0 0 0-.81-3.378 7.493 7.493 0 0 0-6.69-4.122 7.505 7.505 0 0 0-7.348 5.989 7.5 7.5 0 0 0 7.348 9.011z" fill="#082947"/></svg>