<svg xmlns="http://www.w3.org/2000/svg" viewBox="0 0 470 470"><path d="M301.398 69.012l10.606-10.606a7.5 7.5 0 0 1 .001-10.606l32.091-32.092A76.097 76.097 0 0 0 333.773 15c-20.247 0-39.278 7.881-53.589 22.192-17 17-24.722 40.619-21.496 63.923l32.103-32.104a7.503 7.503 0 0 1 10.607.001z" fill="#98d9d5"/><path d="M301.398 69.012a7.5 7.5 0 0 1 0 10.607l-32.092 32.092c3.412.465 6.859.707 10.323.707 20.246 0 39.277-7.882 53.588-22.193 16.999-16.999 24.721-40.618 21.496-63.922L322.61 58.407c-1.464 1.464-3.384 2.196-5.303 2.196s-3.839-.732-5.303-2.196c0-.002-10.606 10.605-10.606 10.605z" fill="#6da8d6"/><path d="M334.737 169.144c-11.444-4.74-23.47-7.144-35.742-7.144-21.508 0-42.551 7.506-59.253 21.134-.343.273-.68.501-1.033.702-.027.016-.052.033-.079.048a7.418 7.418 0 0 1-1.051.474c-.057.021-.113.043-.17.063a7.4 7.4 0 0 1-1.075.277c-.066.012-.132.02-.198.03a7.535 7.535 0 0 1-1.121.094 7.594 7.594 0 0 1-1.15-.094l-.198-.03a7.4 7.4 0 0 1-1.075-.277 5.843 5.843 0 0 1-.17-.063 7.367 7.367 0 0 1-1.051-.474c-.027-.015-.052-.032-.079-.048a7.487 7.487 0 0 1-1.004-.683C213.556 169.506 192.513 162 171.005 162c-12.272 0-24.298 2.403-35.742 7.144-46.278 19.17-69.206 71.054-52.198 118.12 4.922 13.623 48.232 98.476 70.446 141.439C161.912 444.922 178.508 455 196.82 455c6.4 0 12.673-1.254 18.646-3.728a48.633 48.633 0 0 0 14.444-9.229 7.485 7.485 0 0 1 5.09-1.991c1.827 0 3.653.664 5.09 1.991a48.6 48.6 0 0 0 14.444 9.229c5.972 2.474 12.245 3.728 18.646 3.728 18.314 0 34.912-10.08 43.315-26.308 22.21-42.957 65.518-127.804 70.44-141.425 17.009-47.068-5.919-98.954-52.198-118.123zm-215.609 72.349c-.043.001-.085.007-.128.007a7.5 7.5 0 0 1-7.5-7.5c0-.043.006-.085.006-.128a7.493 7.493 0 0 1 6.875-7.341 7.41 7.41 0 0 1 .618-.031c.189 0 .374.015.559.028a7.49 7.49 0 0 1 6.913 6.913c.014.186.028.37.028.559 0 .209-.015.414-.031.618a7.491 7.491 0 0 1-7.34 6.875zM156.5 204c0 .02-.003.039-.003.06a7.498 7.498 0 0 1-7.497 7.441c-.199 0-.394-.015-.588-.029a7.496 7.496 0 0 1 .529-14.969c.02 0 .039-.003.059-.003a7.5 7.5 0 0 1 7.5 7.5zm144.501 180.5c-.357 0-.706-.033-1.049-.082a7.5 7.5 0 0 1-5.873-4.531 7.457 7.457 0 0 1-.126-5.43 7.497 7.497 0 0 1 6.088-4.889c.315-.04.634-.068.96-.068.108 0 .214.012.321.017 3.992.169 7.179 3.449 7.179 7.483a7.5 7.5 0 0 1-7.5 7.5z" fill="#f2484b"/><path d="M340.477 155.286c-13.273-5.498-27.23-8.286-41.482-8.286-20.212 0-40.065 5.717-57.176 16.288-3.18-32.589-17.41-62.813-40.868-86.27a7.5 7.5 0 0 0-10.606.001 7.5 7.5 0 0 0 0 10.606c20.396 20.396 32.986 46.514 36.281 74.732C209.871 152.39 190.61 147 171.005 147c-14.252 0-28.209 2.788-41.482 8.286-53.7 22.243-80.303 82.454-60.565 137.075 6.481 17.938 68.588 138.123 71.231 143.235C151.181 456.817 172.88 470 196.82 470c8.38 0 16.584-1.639 24.385-4.869a63.78 63.78 0 0 0 13.794-7.836 63.752 63.752 0 0 0 13.793 7.835c7.801 3.231 16.005 4.87 24.386 4.87 23.941 0 45.645-13.187 56.637-34.414 2.641-5.107 64.744-125.284 71.225-143.221 19.742-54.623-6.861-114.836-60.563-137.079zm46.457 131.982c-4.922 13.621-48.23 98.468-70.44 141.425-8.403 16.228-25 26.308-43.315 26.308-6.4 0-12.673-1.254-18.646-3.728a48.633 48.633 0 0 1-14.444-9.229 7.483 7.483 0 0 0-5.09-1.991 7.485 7.485 0 0 0-5.09 1.991 48.625 48.625 0 0 1-14.444 9.229C209.494 453.746 203.22 455 196.82 455c-18.313 0-34.909-10.078-43.31-26.297-22.213-42.964-65.523-127.816-70.446-141.439-17.008-47.066 5.92-98.95 52.198-118.12 11.444-4.74 23.47-7.144 35.742-7.144 21.508 0 42.551 7.506 59.254 21.134.343.273.68.501 1.033.702.027.016.052.033.079.048.335.186.688.341 1.051.474.057.021.113.043.17.063a7.4 7.4 0 0 0 1.075.277c.066.012.132.02.198.03.367.056.739.093 1.121.094a7.594 7.594 0 0 0 1.15-.094l.198-.03a7.4 7.4 0 0 0 1.075-.277c.057-.02.113-.041.17-.063a7.367 7.367 0 0 0 1.051-.474c.027-.015.052-.032.079-.048.353-.201.69-.429 1.004-.683C256.444 169.506 277.487 162 298.995 162c12.272 0 24.298 2.403 35.742 7.144 46.279 19.169 69.207 71.055 52.197 118.124z" fill="#082947"/><path d="M126.472 233.441a7.49 7.49 0 0 0-6.913-6.913 7.365 7.365 0 0 0-.559-.028c-.209 0-.414.015-.618.031a7.493 7.493 0 0 0-6.875 7.341c-.001.043-.006.085-.006.128a7.5 7.5 0 0 0 7.5 7.5c.043 0 .085-.006.128-.007a7.492 7.492 0 0 0 7.341-6.875 7.41 7.41 0 0 0 .031-.618c-.001-.188-.016-.374-.029-.559zM149 196.5c-.02 0-.039.003-.06.003a7.498 7.498 0 0 0-7.395 8.308 7.496 7.496 0 0 0 6.866 6.661c.195.015.39.029.588.029a7.498 7.498 0 0 0 7.497-7.441c0-.021.003-.04.003-.06a7.498 7.498 0 0 0-7.499-7.5zm152.321 173.017c-.107-.005-.212-.017-.321-.017-.326 0-.645.028-.96.068a7.494 7.494 0 0 0-6.088 4.889A7.465 7.465 0 0 0 293.5 377a7.46 7.46 0 0 0 .578 2.887 7.502 7.502 0 0 0 5.873 4.531 7.41 7.41 0 0 0 1.049.082 7.5 7.5 0 0 0 7.5-7.5c0-4.034-3.187-7.314-7.179-7.483zm-54.109-251.309l.023.079c.013.041.032.078.045.118a7.71 7.71 0 0 0 .342.846c.088.186.185.367.289.546.041.07.081.141.124.209.111.177.232.348.359.517.044.059.084.119.129.176.172.216.355.425.554.624.207.207.416.39.632.563.058.046.121.088.181.133.167.125.336.245.511.354.07.044.143.085.215.127a7.294 7.294 0 0 0 1.384.628c.041.014.08.033.122.047l.078.023c.034.01.069.021.104.03a91.066 91.066 0 0 0 27.325 4.19c24.252 0 47.052-9.442 64.195-26.586 24.024-24.023 32.594-59.079 22.394-91.525l-.029-.098-.023-.079c-.013-.04-.032-.077-.045-.117a7.623 7.623 0 0 0-.342-.846 7.576 7.576 0 0 0-.291-.548c-.041-.069-.08-.14-.123-.207a7.566 7.566 0 0 0-.361-.521c-.043-.057-.082-.116-.127-.172a7.343 7.343 0 0 0-.559-.63 7.667 7.667 0 0 0-.629-.559c-.056-.045-.116-.084-.173-.127a6.967 6.967 0 0 0-.519-.36c-.069-.044-.14-.083-.21-.124a7.414 7.414 0 0 0-.542-.288c-.072-.034-.144-.068-.218-.101a7.495 7.495 0 0 0-.624-.24c-.043-.014-.082-.034-.125-.048-.027-.009-.054-.016-.08-.023l-.098-.029A91.043 91.043 0 0 0 333.773 0c-24.253 0-47.051 9.441-64.195 26.586-24.024 24.024-32.595 59.079-22.395 91.524l.029.098zm32.973-81.016C294.496 22.881 313.527 15 333.773 15c3.465 0 6.911.241 10.322.707l-32.091 32.092a7.5 7.5 0 0 0 10.606 10.607l32.103-32.104c3.225 23.304-4.497 46.923-21.496 63.922-14.312 14.312-33.343 22.193-53.588 22.193a76.42 76.42 0 0 1-10.323-.707l32.092-32.092a7.5 7.5 0 0 0-10.606-10.607l-32.103 32.104c-3.226-23.303 4.496-46.923 21.496-63.923z" fill="#082947"/></svg>