<svg xmlns="http://www.w3.org/2000/svg" viewBox="0 0 470 470"><path d="M383.75 334.786H425V28.251H263.732c-9.056 0-17.462 4.514-22.485 12.074a7.501 7.501 0 0 1-12.493 0c-5.025-7.561-13.431-12.075-22.486-12.075H45v306.535h161.268a41.895 41.895 0 0 1 28.731 11.364 41.896 41.896 0 0 1 28.733-11.364h20.018a7.5 7.5 0 0 1 7.5 7.498h15V118.749c0-.25.013-.5.038-.747.02-.204.054-.403.09-.601.008-.042.011-.084.019-.126a7.44 7.44 0 0 1 .459-1.478l19.974-47.932a7.5 7.5 0 0 1 13.846.001l19.968 47.927c.203.471.358.967.461 1.483.008.038.01.077.018.115a7.274 7.274 0 0 1 .129 1.359v223.535h15a7.497 7.497 0 0 1 7.498-7.499zm-191.285-25H77.5a7.5 7.5 0 0 1-7.5-7.5v-63.395c0-4.142 3.357-7.5 7.5-7.5s7.5 3.358 7.5 7.5v55.895h16.655v-25.895c0-4.142 3.357-7.5 7.5-7.5s7.5 3.358 7.5 7.5v25.895h16.654v-55.895c0-4.142 3.357-7.5 7.5-7.5s7.5 3.358 7.5 7.5v55.895h16.655v-25.895c0-4.142 3.357-7.5 7.5-7.5s7.5 3.358 7.5 7.5v25.895h12.5c4.143 0 7.5 3.358 7.5 7.5s-3.357 7.5-7.499 7.5zm0-99.023H77.5c-4.143 0-7.5-3.358-7.5-7.5s3.357-7.5 7.5-7.5h114.965a7.5 7.5 0 0 1 0 15zm0-35.628H77.5c-4.143 0-7.5-3.358-7.5-7.5s3.357-7.5 7.5-7.5h114.965a7.5 7.5 0 0 1 0 15zM70 132.007a7.5 7.5 0 0 1 7.5-7.5h57.482c4.143 0 7.5 3.358 7.5 7.5s-3.357 7.5-7.5 7.5H77.5a7.5 7.5 0 0 1-7.5-7.5zm122.465-28.128H77.5c-4.143 0-7.5-3.358-7.5-7.5s3.357-7.5 7.5-7.5h114.965a7.5 7.5 0 0 1 0 15zm0-35.628H77.5c-4.143 0-7.5-3.358-7.5-7.5s3.357-7.5 7.5-7.5h114.965a7.5 7.5 0 0 1 0 15zM242.5 319.023c0 4.142-3.357 7.5-7.5 7.5s-7.5-3.358-7.5-7.5V66.175c0-4.142 3.357-7.5 7.5-7.5s7.5 3.358 7.5 7.5v252.848z" fill="#fff"/><path d="M206.268 364.786a41.921 41.921 0 0 1 21.232 5.763v-10.42a26.937 26.937 0 0 0-21.232-10.343H37.5v15h168.768zm177.482 0h48.75v-15h-48.75a7.5 7.5 0 0 1-7.5-7.5c0-.002-15-.002-15-.002v30h15a7.5 7.5 0 0 1 7.5-7.498zm-92.5-22.5a7.5 7.5 0 0 1-7.5 7.5h-20.018a26.931 26.931 0 0 0-21.232 10.343v10.419a41.918 41.918 0 0 1 21.232-5.762h20.018a7.5 7.5 0 0 1 7.5 7.498h15v-30s-15 0-15 .002z" fill="#c1e8e6"/><path d="M291.25 372.286a7.5 7.5 0 0 1-7.5 7.5h-20.018a26.95 26.95 0 0 0-22.487 12.062 7.68 7.68 0 0 1-.524.691c-.051.06-.105.115-.158.174a7.353 7.353 0 0 1-1.118 1.013c-.059.043-.115.089-.175.131a7.472 7.472 0 0 1-.725.448c-.256.136-.509.25-.766.353-.065.026-.131.048-.197.072a7.465 7.465 0 0 1-1.481.377c-.078.011-.155.027-.234.036-.283.033-.57.053-.862.054a7.55 7.55 0 0 1-.873-.054c-.076-.009-.15-.023-.225-.034a7.062 7.062 0 0 1-1.494-.379c-.063-.023-.126-.044-.189-.069a7.477 7.477 0 0 1-.766-.352 7.352 7.352 0 0 1-.731-.451c-.057-.039-.111-.083-.167-.125a7.442 7.442 0 0 1-.492-.394c-.069-.06-.136-.122-.203-.184a7.559 7.559 0 0 1-.433-.444c-.051-.056-.104-.11-.153-.168a7.547 7.547 0 0 1-.521-.686c-5.03-7.559-13.436-12.069-22.493-12.069H37.5c-4.143 0-7.5-3.358-7.5-7.5s3.357-7.5 7.5-7.5v-15a7.5 7.5 0 0 1-7.5-7.5V88.251H15v306.535h191.268c3.835 0 7.411 1.825 9.676 4.909l6.432 7.502 25.254-.002 6.429-7.502a11.976 11.976 0 0 1 9.675-4.907h42.518v-22.502c-.002 0-15.002 0-15.002.002zm148.75-30a7.5 7.5 0 0 1-7.5 7.5v15c4.143 0 7.5 3.358 7.5 7.5s-3.357 7.5-7.5 7.5h-48.75a7.5 7.5 0 0 1-7.5-7.5c0-.002-15-.002-15-.002v22.502H455V88.251h-15v254.035z" fill="#98d9d5"/><path d="M192.465 294.786h-12.5v-25.895c0-4.142-3.357-7.5-7.5-7.5s-7.5 3.358-7.5 7.5v25.895H148.31v-55.895c0-4.142-3.357-7.5-7.5-7.5s-7.5 3.358-7.5 7.5v55.895h-16.654v-25.895c0-4.142-3.357-7.5-7.5-7.5s-7.5 3.358-7.5 7.5v25.895H85v-55.895c0-4.142-3.357-7.5-7.5-7.5s-7.5 3.358-7.5 7.5v63.395a7.5 7.5 0 0 0 7.5 7.5h114.965a7.5 7.5 0 0 0 0-15zm0-241.535H77.5c-4.143 0-7.5 3.358-7.5 7.5s3.357 7.5 7.5 7.5h114.965a7.5 7.5 0 0 0 0-15zm0 35.628H77.5c-4.143 0-7.5 3.358-7.5 7.5s3.357 7.5 7.5 7.5h114.965a7.5 7.5 0 0 0 0-15zM77.5 139.507h57.482c4.143 0 7.5-3.358 7.5-7.5s-3.357-7.5-7.5-7.5H77.5c-4.143 0-7.5 3.358-7.5 7.5s3.357 7.5 7.5 7.5zm114.965 20.628H77.5c-4.143 0-7.5 3.358-7.5 7.5s3.357 7.5 7.5 7.5h114.965a7.5 7.5 0 0 0 0-15zm0 35.628H77.5c-4.143 0-7.5 3.358-7.5 7.5s3.357 7.5 7.5 7.5h114.965a7.5 7.5 0 0 0 0-15zM235 58.675a7.5 7.5 0 0 0-7.5 7.5v252.848c0 4.142 3.357 7.5 7.5 7.5s7.5-3.358 7.5-7.5V66.175c0-4.143-3.357-7.5-7.5-7.5z" fill="#082947"/><path d="M462.5 73.251H440v-52.5a7.5 7.5 0 0 0-7.5-7.5H263.732A41.879 41.879 0 0 0 235 24.624a41.883 41.883 0 0 0-28.732-11.373H37.5a7.5 7.5 0 0 0-7.5 7.5v52.5H7.5a7.5 7.5 0 0 0-7.5 7.5v321.535a7.5 7.5 0 0 0 7.5 7.5h197.337l8.396 9.793a7.5 7.5 0 0 0 5.694 2.618l32.152-.003c2.189 0 4.27-.957 5.694-2.62l8.389-9.789h41.087v27.463c0 10.752 8.748 19.5 19.502 19.5h16c10.751 0 19.498-8.748 19.498-19.5v-27.463H462.5a7.5 7.5 0 0 0 7.5-7.5V80.751a7.5 7.5 0 0 0-7.5-7.5zM455 394.786h-93.75V118.749c0-.25-.013-.499-.038-.747a7.708 7.708 0 0 0-.091-.612c-.007-.038-.01-.077-.018-.115a7.446 7.446 0 0 0-.461-1.483l-19.968-47.927a7.5 7.5 0 0 0-13.846-.001l-19.974 47.932c-.201.47-.356.964-.459 1.478-.008.042-.011.084-.019.126-.036.198-.07.398-.09.601a7.443 7.443 0 0 0-.038.747v276.037H263.73a11.976 11.976 0 0 0-9.675 4.907l-6.429 7.502-25.254.002-6.432-7.502a11.988 11.988 0 0 0-9.676-4.909H15V88.251h15v254.035a7.5 7.5 0 0 0 7.5 7.5h168.768a26.936 26.936 0 0 1 21.232 10.343v10.42a41.921 41.921 0 0 0-21.232-5.763H37.5c-4.143 0-7.5 3.358-7.5 7.5s3.357 7.5 7.5 7.5h168.768a26.96 26.96 0 0 1 22.488 12.063c.165.246.339.473.525.692.049.058.102.112.153.168a7.559 7.559 0 0 0 .636.628c.158.138.323.269.492.394.056.041.11.085.167.125.234.163.477.314.73.45a7.6 7.6 0 0 0 .767.353c.062.025.126.046.189.069a7.328 7.328 0 0 0 1.494.379c.075.011.149.025.225.034.285.033.574.054.868.054.297 0 .583-.021.867-.054.079-.009.156-.024.234-.036a7.675 7.675 0 0 0 .866-.18c.209-.057.414-.123.615-.197.066-.024.132-.046.197-.072.258-.103.51-.217.753-.346.265-.141.506-.292.739-.454.06-.041.116-.087.175-.131a7.523 7.523 0 0 0 .691-.575c.149-.14.291-.286.427-.438.053-.058.107-.114.158-.174.185-.218.358-.444.517-.682 5.029-7.561 13.435-12.071 22.494-12.071h20.018a7.5 7.5 0 0 0 0-15h-20.018a41.918 41.918 0 0 0-21.232 5.762v-10.419a26.934 26.934 0 0 1 21.232-10.343h20.018a7.5 7.5 0 0 0 0-15h-20.018a41.896 41.896 0 0 0-28.733 11.364 41.9 41.9 0 0 0-28.731-11.364H45V28.251h161.268c9.056 0 17.461 4.514 22.486 12.075a7.498 7.498 0 0 0 12.493 0c5.023-7.561 13.43-12.074 22.485-12.074H425v306.535h-41.25a7.5 7.5 0 1 0 0 15h48.75a7.5 7.5 0 0 0 7.5-7.5V88.251h15v306.535zm-113.248 46.963h-16c-2.44 0-4.502-2.061-4.502-4.5v-13.5h25v13.5c0 2.439-2.06 4.5-4.498 4.5zm-20.502-33v-15h25v15h-25zm3.75-297.5l8.751-21 8.749 21H325zm-3.75 15h25v252.5h-25v-252.5z" fill="#082947"/><path d="M376.25 372.284a7.5 7.5 0 0 0 7.5 7.502h48.75c4.143 0 7.5-3.358 7.5-7.5s-3.357-7.5-7.5-7.5h-48.75a7.5 7.5 0 0 0-7.5 7.498z" fill="#082947"/><path d="M321.25 423.749v13.5c0 2.439 2.062 4.5 4.502 4.5h16c2.438 0 4.498-2.061 4.498-4.5v-13.5h-25z" fill="#f2484b"/><path fill="#6da8d6" d="M321.25 393.749h25v15h-25z"/><path fill="#ffcc75" d="M321.25 126.249h25v252.5h-25z"/><path fill="#f2ebd9" d="M325 111.249h17.5l-8.749-21z"/></svg>