<svg xmlns="http://www.w3.org/2000/svg" viewBox="0 0 470.544 470.544"><path d="M425.929 26.935l-8.849 8.849 17.678 17.678 8.83-8.83 8.848-8.848-17.678-17.678-8.829 8.829z" fill="#ff6e1d"/><path fill="#f2484b" d="M420.732 60.649L409.893 49.81l-26.019 24.892 11.966 11.966z"/><path d="M275.87 212.07l47.933-50.103 61.666-64.458-12.436-12.436-64.429 61.639-116.406 111.363 20.269 20.269 42.666-44.597a7.496 7.496 0 0 1 10.602-.235l10.37-10.839a7.497 7.497 0 0 1-.235-10.603z" fill="#274b6d"/><path d="M327.986 179.292l-41.278 43.147a7.477 7.477 0 0 1-5.42 2.315c-1.864 0-3.73-.69-5.184-2.081l-10.371 10.839a7.498 7.498 0 0 1 .236 10.604l-47.966 50.138a7.498 7.498 0 0 1-5.336 2.315h-.083a7.503 7.503 0 0 1-5.304-2.196l-31.113-31.113a7.504 7.504 0 0 1 .119-10.723l114.962-109.982c-31.455-17.455-71.187-15.547-100.808 5.276 3.354 28.581-6.539 57.353-26.953 77.767-13.751 13.751-31.108 22.8-50.196 26.169-17.215 3.037-34.713 1.298-50.869-5.028a116.51 116.51 0 0 0-13.657 11.695C8.422 298.778 4.227 361.783 36.168 406.847l56.593-70.72a7.495 7.495 0 0 1 5.441-2.803 7.508 7.508 0 0 1 5.718 2.185l31.112 31.112a7.502 7.502 0 0 1-.618 11.159l-70.72 56.593c45.063 31.942 108.068 27.749 148.412-12.598a116.559 116.559 0 0 0 11.696-13.657c-6.325-16.155-8.066-33.65-5.027-50.869 3.368-19.087 12.417-36.445 26.168-50.196 20.414-20.414 49.178-30.305 77.767-26.952 20.824-29.621 22.732-69.353 5.276-100.809zM105.581 299.604c-3.744 1.797-7.108 2.498-10.079 2.498-6.523 0-11.15-3.38-13.732-5.962a7.498 7.498 0 0 1 .001-10.606 7.5 7.5 0 0 1 10.606.001c1.491 1.491 2.844 2.403 6.714.546 4.409-2.116 9.688-6.853 14.793-11.432 5.89-5.284 11.979-10.747 18.32-13.791 11.966-5.742 20.054-.294 23.813 3.463a7.5 7.5 0 0 1-10.607 10.607c-1.491-1.492-2.845-2.405-6.715-.547-4.409 2.116-9.688 6.853-14.794 11.433-5.889 5.283-11.979 10.747-18.32 13.79zm29.159 5.085a7.5 7.5 0 0 1 10.607-10.607l31.112 31.112a7.5 7.5 0 1 1-10.608 10.607l-31.111-31.112zm74.944 33.648c-3.044 6.341-8.507 12.431-13.791 18.32-4.579 5.104-9.315 10.384-11.432 14.793-1.856 3.869-.944 5.223.546 6.714a7.498 7.498 0 0 1-5.303 12.803 7.477 7.477 0 0 1-5.303-2.196c-3.759-3.758-9.205-11.848-3.464-23.812 3.043-6.341 8.507-12.431 13.79-18.319 4.58-5.105 9.316-10.385 11.433-14.794 1.856-3.869.944-5.224-.547-6.715a7.5 7.5 0 0 1 10.607-10.607c3.759 3.759 9.205 11.85 3.464 23.813z" fill="#ff6e1d"/><path d="M51.795 424.686l66.707-53.381-19.264-19.264-53.381 66.707c.951 1.021 1.915 2.034 2.91 3.029s2.006 1.958 3.028 2.909z" fill="#274b6d"/><path d="M145.409 274.928a7.5 7.5 0 0 0 10.607-10.607c-3.759-3.757-11.847-9.205-23.813-3.463-6.341 3.044-12.431 8.507-18.32 13.791-5.104 4.579-10.384 9.315-14.793 11.432-3.87 1.857-5.223.945-6.714-.546a7.5 7.5 0 0 0-10.606-.001 7.498 7.498 0 0 0-.001 10.606c2.582 2.582 7.209 5.962 13.732 5.962 2.971 0 6.335-.701 10.079-2.498 6.341-3.043 12.431-8.507 18.319-13.79 5.105-4.58 10.385-9.316 14.794-11.433 3.872-1.858 5.225-.945 6.716.547zm50.204 39.597a7.5 7.5 0 0 0 0 10.607c1.491 1.491 2.403 2.846.547 6.715-2.116 4.409-6.853 9.688-11.433 14.794-5.283 5.889-10.747 11.979-13.79 18.319-5.741 11.964-.295 20.054 3.464 23.812 1.464 1.464 3.384 2.196 5.303 2.196s3.839-.732 5.304-2.197a7.498 7.498 0 0 0-.001-10.606c-1.49-1.491-2.402-2.845-.546-6.714 2.116-4.409 6.853-9.688 11.432-14.793 5.284-5.89 10.747-11.979 13.791-18.32 5.741-11.964.295-20.055-3.463-23.813a7.503 7.503 0 0 0-10.608 0z" fill="#082947"/><path d="M176.46 335.801a7.5 7.5 0 0 0 0-10.607l-31.112-31.112a7.5 7.5 0 0 0-10.607 10.607l31.112 31.112c1.465 1.464 3.385 2.196 5.304 2.196s3.838-.732 5.303-2.196z" fill="#f2ebd9"/><path d="M468.346 30.48L440.062 2.196a7.502 7.502 0 0 0-10.607 0l-8.838 8.838-1.768-1.768a7.5 7.5 0 0 0-10.607 10.607l1.768 1.768-8.839 8.839a7.499 7.499 0 0 0-1.53 8.38l-11.92 11.404-16.026-16.026a7.5 7.5 0 0 0-10.606-.001 7.498 7.498 0 0 0-.001 10.606l15.792 15.792-74.353 71.132c-18.062-11.117-38.737-16.7-60.203-16.172-23.614.588-45.929 8.519-64.53 22.935a7.498 7.498 0 0 0-2.802 7.169c4.246 25.298-4.019 51.201-22.109 69.292-23.046 23.048-58.549 29.629-88.341 16.379a7.497 7.497 0 0 0-7.257.645 131.39 131.39 0 0 0-19.125 15.813c-48.091 48.092-50.719 124.681-7.904 175.9l.081.097a131.836 131.836 0 0 0 7.823 8.559c25.441 25.44 58.859 38.161 92.278 38.161 33.418 0 66.836-12.721 92.277-38.161a131.452 131.452 0 0 0 15.813-19.125 7.502 7.502 0 0 0 .645-7.257c-13.25-29.792-6.668-65.294 16.38-88.341 18.089-18.09 43.993-26.355 69.29-22.108a7.504 7.504 0 0 0 7.17-2.802c14.416-18.602 22.347-40.916 22.935-64.53.533-21.462-5.054-42.142-16.172-60.204l78.738-82.304 15.793 15.792c1.464 1.464 3.384 2.196 5.303 2.196s3.839-.732 5.304-2.197a7.498 7.498 0 0 0-.001-10.606l-16.027-16.026 3.798-3.97a7.481 7.481 0 0 0 8.38-1.529l8.839-8.839 1.768 1.768c1.465 1.464 3.385 2.196 5.304 2.196s3.839-.732 5.304-2.196a7.5 7.5 0 0 0 0-10.607l-1.768-1.768 8.838-8.838a7.505 7.505 0 0 0-.003-10.609zm-24.739 14.132l-8.849 8.849-17.678-17.677 8.83-8.83 8.848-8.848 17.678 17.678-8.829 8.828zM244.944 307.053c-13.751 13.751-22.8 31.109-26.168 50.196-3.039 17.219-1.298 34.714 5.027 50.869a116.559 116.559 0 0 1-11.696 13.657c-40.344 40.347-103.349 44.54-148.412 12.598l70.72-56.593a7.502 7.502 0 0 0 .618-11.159l-31.112-31.112a7.508 7.508 0 0 0-5.718-2.185 7.493 7.493 0 0 0-5.441 2.803l-56.593 70.72C4.227 361.783 8.422 298.778 48.766 258.434a116.51 116.51 0 0 1 13.657-11.695c16.156 6.326 33.654 8.065 50.869 5.028 19.088-3.369 36.445-12.418 50.196-26.169 20.414-20.414 30.308-49.186 26.953-77.767 29.621-20.823 69.353-22.731 100.808-5.276L176.287 252.538a7.498 7.498 0 0 0-.119 10.723l31.113 31.113a7.502 7.502 0 0 0 5.304 2.196h.083a7.498 7.498 0 0 0 5.336-2.315l47.966-50.138a7.5 7.5 0 0 0-.234-10.604 7.5 7.5 0 0 0-10.604.234l-42.666 44.597-20.269-20.269 116.384-111.343 64.451-61.659 12.436 12.436-61.632 64.423-47.966 50.138a7.498 7.498 0 0 0 .234 10.603 7.475 7.475 0 0 0 5.184 2.082 7.477 7.477 0 0 0 5.42-2.315l41.278-43.147c17.456 31.456 15.548 71.188-5.276 100.809-28.589-3.353-57.352 6.537-77.766 26.951zM99.237 352.041l19.264 19.264-66.707 53.381c-1.021-.951-2.034-1.915-3.029-2.91s-1.959-2.007-2.91-3.029l53.382-66.706zM409.893 49.81l10.839 10.839-24.892 26.019-11.966-11.966 26.019-24.892z" fill="#082947"/></svg>